<?xml version="1.0" encoding="UTF-8" standalone="no"?>
<!-- Created with Inkscape (http://www.inkscape.org/) -->

<svg
   xmlns:dc="http://purl.org/dc/elements/1.1/"
   xmlns:cc="http://creativecommons.org/ns#"
   xmlns:rdf="http://www.w3.org/1999/02/22-rdf-syntax-ns#"
   xmlns:svg="http://www.w3.org/2000/svg"
   xmlns="http://www.w3.org/2000/svg"
   xmlns:sodipodi="http://sodipodi.sourceforge.net/DTD/sodipodi-0.dtd"
   xmlns:inkscape="http://www.inkscape.org/namespaces/inkscape"
   width="204.23137"
   height="73.512627"
   id="svg2"
   version="1.1"
   inkscape:version="0.47 r22583"
   sodipodi:docname="title.svg"
   inkscape:export-filename="/home/jose/kora/documentación/title.png"
   inkscape:export-xdpi="902.29395"
   inkscape:export-ydpi="902.29395">
  <defs
     id="defs4">
    <inkscape:perspective
       sodipodi:type="inkscape:persp3d"
       inkscape:vp_x="0 : 526.18109 : 1"
       inkscape:vp_y="0 : 1000 : 0"
       inkscape:vp_z="744.09448 : 526.18109 : 1"
       inkscape:persp3d-origin="372.04724 : 350.78739 : 1"
       id="perspective10" />
    <inkscape:perspective
       id="perspective2892"
       inkscape:persp3d-origin="0.5 : 0.33333333 : 1"
       inkscape:vp_z="1 : 0.5 : 1"
       inkscape:vp_y="0 : 1000 : 0"
       inkscape:vp_x="0 : 0.5 : 1"
       sodipodi:type="inkscape:persp3d" />
    <inkscape:perspective
       id="perspective2826"
       inkscape:persp3d-origin="0.5 : 0.33333333 : 1"
       inkscape:vp_z="1 : 0.5 : 1"
       inkscape:vp_y="0 : 1000 : 0"
       inkscape:vp_x="0 : 0.5 : 1"
       sodipodi:type="inkscape:persp3d" />
    <filter
       inkscape:collect="always"
       id="filter3608"
       color-interpolation-filters="sRGB">
      <feGaussianBlur
         inkscape:collect="always"
         stdDeviation="0.67320313"
         id="feGaussianBlur3610" />
    </filter>
  </defs>
  <sodipodi:namedview
     id="base"
     pagecolor="#ffffff"
     bordercolor="#666666"
     borderopacity="1.0"
     inkscape:pageopacity="0.0"
     inkscape:pageshadow="2"
     inkscape:zoom="1.7826534"
     inkscape:cx="102.7068"
     inkscape:cy="-4.5247065"
     inkscape:document-units="px"
     inkscape:current-layer="layer2"
     showgrid="false"
     inkscape:window-width="1280"
     inkscape:window-height="980"
     inkscape:window-x="-4"
     inkscape:window-y="-3"
     inkscape:window-maximized="1" />
  <metadata
     id="metadata7">
    <rdf:RDF>
      <cc:Work
         rdf:about="">
        <dc:format>image/svg+xml</dc:format>
        <dc:type
           rdf:resource="http://purl.org/dc/dcmitype/StillImage" />
        <dc:title></dc:title>
      </cc:Work>
    </rdf:RDF>
  </metadata>
  <g
     inkscape:label="Layer 1"
     inkscape:groupmode="layer"
     id="layer1"
     transform="translate(-55.759313,-630.52774)">
    <path
       style="font-size:94.5298233px;font-style:normal;font-variant:normal;font-weight:normal;font-stretch:normal;fill:#000000;fill-opacity:1;stroke:#000000;filter:url(#filter3608);font-family:Outer Sider BRK;-inkscape-font-specification:Outer Sider BRK"
       d="m 100.5,60.28125 c -1.57554,7e-5 -2.98964,0.21518 -4.25,0.65625 -1.26044,0.37818 -2.58235,0.96205 -3.96875,1.78125 -1.38647,0.7563 -2.73911,1.58654 -4.0625,2.46875 -1.26042,0.81932 -2.70526,1.21881 -4.34375,1.21875 -1.44948,6e-5 -2.74067,-0.27651 -3.875,-0.84375 -1.07136,-0.63014 -2.14744,-1.33745 -3.21875,-2.09375 -1.07136,-0.75618 -2.23962,-1.40151 -3.5,-1.96875 -1.19739,-0.63013 -2.58077,-0.93743 -4.15625,-0.9375 -2.14269,7e-5 -3.92555,0.46102 -5.375,1.40625 -1.44946,0.94536 -2.61773,2.17509 -3.5,3.6875 -0.81926,1.51254 -1.43438,3.20321 -1.8125,5.09375 -0.37812,1.89065 -0.5625,3.79696 -0.5625,5.6875 0,2.45782 0.03075,4.91727 0.09375,7.375 0.12606,2.45781 0.1875,4.91727 0.1875,7.375 0,2.77291 -0.06146,5.50892 -0.1875,8.21875 -0.063,2.70988 -0.09375,5.41517 -0.09375,8.125 0,1.8276 0.15365,3.82609 0.46875,5.96875 0.3151,2.07967 0.89949,4.01618 1.71875,5.84375 0.88227,1.82758 2.01929,3.33388 3.46875,4.53125 1.44945,1.19738 3.32502,1.8125 5.59375,1.8125 1.70152,0 3.17709,-0.39949 4.4375,-1.21875 1.26038,-0.81925 2.42864,-1.71095 3.5,-2.65625 1.13433,-1.00832 2.27187,-1.93073 3.40625,-2.75 1.19735,-0.81925 2.58073,-1.21874 4.15625,-1.21875 1.82755,1e-5 3.3953,0.52242 4.71875,1.59375 1.38641,1.07134 2.80051,2.11668 4.25,3.125 1.51244,1.07134 3.04998,1.9323 4.5625,2.5625 1.57545,0.56718 3.29685,0.84375 5.1875,0.84375 2.3947,0 4.4854,-0.58387 6.25,-1.78125 1.76451,-1.19737 2.90203,-3.07295 3.40625,-5.59375 -6e-5,-0.18905 -6e-5,-0.58854 0,-1.21875 0.0629,-0.6932 0.0937,-1.18541 0.0937,-1.4375 -6e-5,-3.02494 -0.67664,-5.57658 -2,-7.65625 -1.32347,-2.07963 -2.7683,-3.98542 -4.34375,-5.75 -1.57555,-1.82755 -3.02038,-3.64166 -4.34375,-5.40625 -1.32346,-1.82754 -2.00004,-3.91771 -2,-6.3125 -4e-5,-2.01659 0.49216,-3.83071 1.4375,-5.40625 1.00827,-1.57545 2.08383,-3.11248 3.28125,-4.625 1.19733,-1.57545 2.2734,-3.20466 3.21875,-4.90625 1.00826,-1.7645 1.5312,-3.85519 1.53125,-6.25 -5e-5,-2.96187 -0.83029,-5.26767 -2.46875,-6.90625 -1.57555,-1.63845 -3.88134,-2.43743 -6.90625,-2.4375 l 5e-5,0 z m 40.0625,11.53125 c -3.84424,5e-5 -7.40997,0.79903 -10.75,2.4375 -3.27705,1.63856 -6.16723,3.82145 -8.625,6.53125 -2.39476,2.7099 -4.26981,5.84592 -5.65625,9.375 -1.38644,3.46612 -2.09375,7.03185 -2.09375,10.75 0,3.78121 0.70731,7.40892 2.09375,10.875 1.44946,3.4661 3.38597,6.54067 5.84375,9.1875 2.52079,2.58382 5.47243,4.64325 8.8125,6.21875 3.40305,1.57549 7.03076,2.375 10.875,2.375 3.84418,0 7.34845,-0.83024 10.5625,-2.46875 3.21397,-1.5755 6.01197,-3.66566 8.34375,-6.3125 2.39471,-2.70985 4.23903,-5.78442 5.5625,-9.1875 1.32336,-3.46608 1.99994,-7.03233 2,-10.6875 -6e-5,-3.78117 -0.67664,-7.37763 -2,-10.84375 -1.32347,-3.52908 -3.16779,-6.63437 -5.5625,-9.28125 -2.33178,-2.7098 -5.19124,-4.89269 -8.53125,-6.53125 -3.27707,-1.63847 -6.90478,-2.43745 -10.875,-2.4375 z m 92.15625,0 c -4.09632,5e-5 -7.87768,0.73757 -11.34375,2.25 -3.40309,1.4495 -6.35422,3.50947 -8.875,6.15625 -2.45779,2.58386 -4.39482,5.62717 -5.78125,9.15625 -1.38644,3.52914 -2.0625,7.3105 -2.0625,11.34375 0,4.47443 0.7995,8.56362 2.375,12.21875 1.63851,3.65517 3.82087,6.75994 6.59375,9.34375 2.77287,2.58381 6.06255,4.58232 9.84375,5.96875 3.78117,1.38644 9.38174,1.3613 15.27279,-0.60207 4.90248,-1.6339 6.14023,1.92705 9.10221,0.41457 2.96189,-1.51247 5.17549,-3.60317 6.625,-6.25 1.51242,-2.70985 2.46558,-5.90733 2.84375,-9.5625 0.37807,-3.71815 0.56245,-7.77609 0.5625,-12.1875 -5e-5,-2.45775 -0.0615,-4.97865 -0.1875,-7.5625 -0.12609,-2.6468 -0.52558,-5.13698 -1.21875,-7.46875 -0.69327,-2.3317 -1.80007,-4.42186 -3.3125,-6.3125 -1.44951,-1.89055 -3.54019,-3.33591 -6.25,-4.28125 -2.3948,-0.88223 -4.6612,-0.615997 -6.92988,-1.057187 -2.26875,-0.44109 -4.73686,-1.567763 -7.25762,-1.567813 z m -43,1.125 c -1.63853,5e-5 -3.14483,0.18443 -4.53125,0.5625 -1.38645,0.31515 -2.86254,0.74538 -4.375,1.3125 -3.02496,1.07139 -5.29951,2.79332 -6.875,5.125 -1.51248,2.26876 -2.61929,4.8204 -3.3125,7.65625 -0.6302,2.83593 -0.9995,5.78706 -1.0625,8.875 l 0,8.5 c 0,1.89061 0.15417,4.04276 0.40625,6.4375 0.25208,2.33174 0.77449,4.54536 1.59375,6.625 0.81925,2.07967 1.98752,3.8318 3.5,5.28125 1.51247,1.38644 3.51044,2.09375 6.03125,2.09375 2.14266,0 3.92604,-0.46147 5.3125,-1.34375 1.38642,-0.88227 2.49322,-2.01929 3.3125,-3.46875 0.88226,-1.44945 1.52759,-3.10992 1.96875,-4.9375 0.50413,-1.82757 0.93487,-3.67189 1.25,-5.5625 0.37809,-1.89058 0.71613,-3.73542 1.03125,-5.5 0.31508,-1.76453 0.7453,-3.30156 1.3125,-4.625 0.56715,-1.38641 1.39738,-2.67759 2.46875,-3.875 1.13433,-1.26036 2.2104,-2.52082 3.21875,-3.78125 1.07131,-1.32338 1.96247,-2.6453 2.71875,-3.96875 0.81922,-1.3864 1.24997,-2.92342 1.25,-4.625 -3e-5,-2.07961 -0.49224,-3.80154 -1.4375,-5.125 -0.94534,-1.38639 -2.14432,-2.46194 -3.59375,-3.28125 C 198.45677,74.43028 196.82755,73.81515 195,73.5 c -1.76458,-0.37807 -3.51671,-0.56245 -5.28125,-0.5625 z"
       transform="translate(0,572.36218)"
       id="path2847"
       sodipodi:nodetypes="ccccscscsscsscscsccsssscscccssccssccscccsccccccscccscccsccccccssscssssccsssccscccccccccscsscccscsccsccccc" />
  </g>
  <g
     inkscape:groupmode="layer"
     id="layer2"
     inkscape:label="Layer"
     transform="translate(-55.759313,-58.165563)">
    <path
       style="font-size:94.5298233px;font-style:normal;font-variant:normal;font-weight:normal;font-stretch:normal;fill:#fff0bd;fill-opacity:1;stroke:#000000;font-family:Outer Sider BRK;-inkscape-font-specification:Outer Sider BRK"
       d="m 100.40625,63.1875 c -1.00836,6e-5 -1.96152,0.27716 -2.84375,0.78125 -0.88232,0.44121 -1.71203,0.99434 -2.53125,1.6875 -0.75627,0.63026 -1.49432,1.33757 -2.1875,2.09375 -0.69326,0.75629 -1.30786,1.43236 -1.875,2.0625 -0.12607,0.1261 -0.34118,0.37194 -0.65625,0.75 -0.31513,0.37818 -0.68441,0.80892 -1.0625,1.25 -0.37815,0.37817 -0.74691,0.77766 -1.125,1.21875 -0.31513,0.37817 -0.49952,0.59328 -0.5625,0.65625 -0.31513,0.37817 -0.7766,0.87038 -1.34375,1.4375 -0.56721,0.50421 -1.08962,1.02662 -1.59375,1.59375 -0.50419,0.50421 -0.96513,0.96516 -1.40625,1.40625 -0.37814,0.37817 -0.59325,0.59379 -0.65625,0.59375 l -1.0625,0.5625 -3.6875,0 c -0.2521,4e-5 -0.46721,-0.15361 -0.65625,-0.46875 -0.18907,-0.31505 -0.37346,-0.68433 -0.5625,-1.0625 -0.12606,-0.37807 -0.24898,-0.74683 -0.375,-1.125 -0.12606,-0.37807 -0.18752,-0.62391 -0.1875,-0.75 -2e-5,-1.1343 -0.03075,-2.39476 -0.09375,-3.78125 -0.063,-1.38638 -0.27815,-2.67757 -0.65625,-3.875 -0.37814,-1.26034 -1.02399,-2.30568 -1.90625,-3.125 -0.88229,-0.88221 -2.11202,-1.31244 -3.6875,-1.3125 -0.94531,6e-5 -1.80627,0.21518 -2.5625,0.65625 -0.69322,0.37818 -1.30783,0.90059 -1.875,1.59375 -0.50417,0.63026 -0.93439,1.3683 -1.3125,2.1875 -0.31511,0.75629 -0.5922,1.52455 -0.78125,2.34375 -1e-5,0.18912 -0.03075,0.52767 -0.09375,0.96875 l 0,1.21875 0,1.3125 0,0.875 c 0,2.64689 0.06144,5.22925 0.1875,7.75 0.12603,2.52084 0.18749,5.1032 0.1875,7.75 -1e-5,3.21404 -0.06144,6.44174 -0.1875,9.71875 -0.12605,3.21403 -0.1875,6.44225 -0.1875,9.65625 l 0,1.03125 0,1.40625 0,1.53125 c 0.063,0.44115 0.09375,0.74845 0.09375,0.9375 0.18905,1.63853 0.86563,3.14482 2,4.53125 1.19737,1.32342 2.70366,2 4.53125,2 1.44944,0 2.80209,-0.4922 4.0625,-1.4375 1.3234,-0.94529 1.99998,-2.23648 2,-3.875 l 0,-10.1875 c -2e-5,-0.18904 0.06144,-0.46613 0.1875,-0.78125 0.12602,-0.3781 0.24894,-0.71613 0.375,-1.03125 0.18904,-0.3781 0.37342,-0.6854 0.5625,-0.9375 0.25205,-0.25205 0.46717,-0.37497 0.65625,-0.375 l 3.6875,0 c 0.37809,3e-5 0.83957,0.2766 1.34375,0.84375 0.56716,0.50418 0.90519,0.81148 1.03125,0.9375 l 10.5,13.15625 c 1.00828,1.26041 2.238,2.36721 3.6875,3.3125 1.51243,0.9453 3.08019,1.40625 4.71875,1.40625 0.81921,0 1.64893,-0.15365 2.53125,-0.46875 0.94525,-0.37812 1.80621,-0.83907 2.5625,-1.40625 0.75619,-0.63019 1.37131,-1.3375 1.8125,-2.09375 0.50411,-0.81925 0.74995,-1.71094 0.75,-2.65625 -5e-5,-1.32341 -0.30735,-2.46093 -0.9375,-3.40625 -0.56723,-0.94528 -1.336,-1.86719 -2.28125,-2.8125 -0.25213,-0.25206 -0.95944,-0.95937 -2.09375,-2.09375 -1.07138,-1.13433 -2.23965,-2.36406 -3.5,-3.6875 -1.26044,-1.32339 -2.42819,-2.52239 -3.5625,-3.59375 -1.1344,-1.13433 -1.84171,-1.84112 -2.09375,-2.15625 -0.94534,-1.00829 -1.77556,-2.08436 -2.46875,-3.21875 -0.63023,-1.13433 -0.93754,-2.4255 -0.9375,-3.875 -4e-5,-1.63848 0.39946,-3.08331 1.21875,-4.34375 0.88225,-1.26035 1.86612,-2.42862 2.9375,-3.5 0.31506,-0.37808 0.93018,-0.99319 1.8125,-1.8125 l 2.71875,-2.75 c 1.00827,-0.94525 1.96143,-1.80569 2.84375,-2.625 0.88224,-0.88222 1.49735,-1.49735 1.8125,-1.8125 0.50411,-0.63015 0.84214,-1.21402 1.03125,-1.78125 0.25203,-0.56713 0.37495,-1.2437 0.375,-2 -5e-5,-1.7645 -0.6459,-3.36298 -1.90625,-4.8125 -1.26044,-1.44939 -2.8282,-2.18744 -4.71875,-2.1875 z M 140.875,75.21875 c -1.13439,5e-5 -2.51828,0.21516 -4.09375,0.65625 -1.5125,0.44119 -3.04952,0.99433 -4.625,1.6875 -1.51249,0.69327 -2.95733,1.46203 -4.34375,2.28125 -1.32343,0.75628 -2.36878,1.46308 -3.125,2.15625 -1.19739,1.07138 -2.18075,2.3933 -3,3.96875 -0.81926,1.57554 -1.52658,3.26673 -2.09375,5.03125 -0.50417,1.76459 -0.87293,3.51673 -1.125,5.28125 -0.18907,1.76459 -0.28126,3.39379 -0.28125,4.90625 -1e-5,2.26873 0.2151,4.51308 0.65625,6.71875 0.50415,2.14269 1.21095,4.17192 2.15625,6.0625 1.00831,1.89061 2.26876,3.58128 3.78125,5.09375 1.51246,1.51248 3.3573,2.74221 5.5,3.6875 1.82755,0.81927 3.54896,1.49584 5.1875,2 1.70151,0.44114 3.54635,0.65625 5.5,0.65625 1.51244,0 2.98801,-0.0922 4.4375,-0.28125 1.44942,-0.25208 2.86353,-0.71355 4.25,-1.34375 1.0713,-0.44113 2.33176,-1.20939 3.78125,-2.34375 1.44942,-1.19737 2.83279,-2.51928 4.15625,-3.96875 1.32338,-1.51246 2.43017,-3.04949 3.3125,-4.625 0.94525,-1.6385 1.4062,-3.17604 1.40625,-4.5625 l 0,-14.9375 c -5e-5,-0.12601 -0.0308,-0.34112 -0.0937,-0.65625 -0.0631,-0.31506 -0.12453,-0.53017 -0.1875,-0.65625 -0.12609,-0.18902 -0.3412,-0.68071 -0.65625,-1.5 -0.31515,-0.81923 -0.53026,-1.40362 -0.65625,-1.71875 -1.44956,-3.02492 -3.20221,-5.39217 -5.2188,-7.09375 -1.95366,-1.70149 -4.4131,-3.26924 -7.375,-4.71875 -1.19741,-0.50411 -2.36516,-0.9036 -3.5625,-1.21875 -1.19741,-0.37807 -2.42714,-0.56245 -3.6875,-0.5625 z m 89.03125,0 c -1.8276,5e-5 -3.51879,0.30735 -5.03125,0.9375 -1.44948,0.56723 -2.83285,1.30475 -4.15625,2.25 -1.32343,0.94534 -2.58389,2.05215 -3.78125,3.3125 -1.13437,1.19742 -2.2719,2.45788 -3.40625,3.78125 -0.063,0.0631 -0.18595,0.21671 -0.375,0.46875 -0.18907,0.25212 -0.31198,0.46775 -0.375,0.59375 -0.69322,1.1344 -1.24637,2.42558 -1.6875,3.875 -0.44115,1.44949 -0.87189,2.7714 -1.25,3.96875 -0.31511,1.00835 -0.56094,2.02244 -0.75,3.09375 -0.18906,1.00835 -0.28125,2.05368 -0.28125,3.125 0,1.76458 0.21511,3.4865 0.65625,5.125 0.44113,1.57551 0.96406,3.20473 1.53125,4.90625 0.69321,2.20571 1.64585,4.23493 2.90625,6.0625 1.32341,1.82758 2.89168,3.39534 4.65625,4.71875 1.76454,1.32342 3.67033,2.36877 5.75,3.125 2.14266,0.69322 4.41772,1.03125 6.8125,1.03125 0.81923,0 1.61873,-0.12292 2.375,-0.375 0.7562,-0.3151 1.49373,-0.6224 2.25,-0.9375 0.75621,-0.3151 1.52498,-0.62291 2.28125,-0.875 0.7562,-0.31509 1.55519,-0.46874 2.4375,-0.46875 0.69318,1e-5 1.33903,0.0922 1.90625,0.28125 0.56714,0.18907 1.08955,0.40418 1.59375,0.65625 0.56713,0.25208 1.1208,0.49844 1.625,0.6875 0.50412,0.18906 1.02653,0.28125 1.59375,0.28125 0.75619,0 1.49423,-0.33855 2.1875,-0.96875 0.75619,-0.63019 1.3708,-1.36772 1.875,-2.25 0.50411,-0.88228 0.93485,-1.80469 1.25,-2.75 0.31505,-0.94529 0.4687,-1.77553 0.46875,-2.46875 -5e-5,-1.07133 -0.0923,-2.11615 -0.28125,-3.1875 -0.18911,-1.13434 -0.2813,-2.24115 -0.28125,-3.3125 -5e-5,-1.51246 0.0922,-3.01876 0.28125,-4.53125 0.18901,-1.51246 0.2812,-3.08073 0.28125,-4.65625 -5e-5,-1.51245 -0.0923,-3.01874 -0.28125,-4.53125 -0.18911,-1.51244 -0.2813,-3.01874 -0.28125,-4.53125 -5e-5,-0.94526 0.0922,-1.86769 0.28125,-2.75 0.18901,-0.94526 0.2812,-1.86768 0.28125,-2.75 -5e-5,-1.63847 -0.58444,-2.99112 -1.71875,-4.0625 -1.1344,-1.07129 -2.3334,-2.02393 -3.59375,-2.90625 -1.19742,-0.81921 -2.48861,-1.24995 -3.875,-1.25 -1.32346,-0.063 -2.64537,-0.24735 -3.96875,-0.5625 -1.76459,-0.50411 -3.42453,-0.96506 -5,-1.40625 -1.5125,-0.50411 -3.14172,-0.74995 -4.90625,-0.75 z M 181.6875,77.9375 c -0.75625,5e-5 -1.55575,0.27714 -2.375,0.78125 -0.75625,0.5042 -1.46356,1.14954 -2.09375,1.96875 -0.63021,0.75629 -1.15262,1.58651 -1.59375,2.46875 -0.37813,0.88232 -0.56251,1.68131 -0.5625,2.4375 l 0,19.875 c 0.063,0.18908 0.12447,0.61931 0.1875,1.3125 0.063,0.69324 0.0937,1.12346 0.0937,1.3125 l 0,8.71875 c 0.31509,1.44946 1.02188,2.58648 2.15625,3.46875 1.19736,0.81926 2.55053,1.25 4,1.25 1.57548,0 2.80521,-0.43074 3.6875,-1.25 0.94528,-0.88227 1.62134,-1.89637 2.0625,-3.09375 0.44112,-1.26039 0.68696,-2.61303 0.75,-4.0625 0.12602,-1.44944 0.18748,-2.77136 0.1875,-3.96875 -2e-5,-1.38642 -0.0614,-2.77031 -0.1875,-4.09375 -0.063,-1.3234 -0.0939,-2.67604 -0.0937,-4.0625 -2e-5,-1.95359 0.30729,-3.49061 0.9375,-4.625 0.6932,-1.19734 1.55416,-2.18123 2.5625,-2.9375 1.00829,-0.75621 2.1151,-1.34007 3.3125,-1.78125 1.19735,-0.50412 2.30415,-1.02654 3.3125,-1.59375 1.00828,-0.56715 1.83852,-1.24372 2.46875,-2 0.69319,-0.81922 1.03122,-1.92603 1.03125,-3.3125 -3e-5,-0.7562 -0.18441,-1.5557 -0.5625,-2.375 -0.31513,-0.81921 -0.7766,-1.526 -1.34375,-2.15625 -0.56721,-0.69317 -1.21254,-1.24684 -1.96875,-1.625 -0.75627,-0.44109 -1.55577,-0.6562 -2.375,-0.65625 l -13.59375,0 z m -41.3125,13.25 c 3.02492,4e-5 5.29999,0.79902 6.8125,2.4375 1.51245,1.63855 2.28121,3.97507 2.28125,7 -4e-5,1.26042 -0.18442,2.52087 -0.5625,3.78125 -0.37815,1.26042 -0.96254,2.42868 -1.71875,3.5 -0.75627,1.07136 -1.70943,1.96305 -2.84375,2.65625 -1.07137,0.63021 -2.26985,0.93751 -3.65625,0.9375 -1.19741,1e-5 -2.36566,-0.30729 -3.5,-0.9375 -1.07136,-0.63018 -2.05525,-1.46041 -2.9375,-2.46875 -0.8823,-1.0083 -1.62034,-2.1151 -2.1875,-3.3125 -0.50418,-1.19736 -0.75001,-2.36561 -0.75,-3.5 -1e-5,-1.32339 0.18436,-2.58384 0.5625,-3.78125 0.44112,-1.26037 1.05624,-2.30519 1.8125,-3.1875 0.81924,-0.94527 1.77187,-1.71404 2.90625,-2.28125 1.13434,-0.56714 2.39478,-0.84371 3.78125,-0.84375 z m 90.75,0 c 2.83586,4e-5 5.11093,0.82975 6.8125,2.53125 1.76452,1.70157 2.62497,3.97663 2.625,6.8125 -3e-5,2.20572 -0.46099,4.05056 -1.40625,5.5 -0.88232,1.44947 -2.23495,2.80212 -4.0625,4.0625 -0.69325,0.50417 -1.3391,0.8422 -1.90625,1.03125 -0.56721,0.18907 -1.24327,0.28126 -2.0625,0.28125 -1.32344,1e-5 -2.49171,-0.33802 -3.5,-1.03125 -1.00834,-0.6932 -1.8693,-1.55416 -2.5625,-2.5625 -0.69324,-1.07132 -1.21565,-2.23958 -1.59375,-3.5 -0.31511,-1.3234 -0.46877,-2.55312 -0.46875,-3.6875 -2e-5,-1.19735 0.15364,-2.36561 0.46875,-3.5 0.3781,-1.13433 0.90051,-2.11769 1.59375,-3 0.6932,-0.88225 1.55416,-1.58956 2.5625,-2.09375 1.00829,-0.56714 2.17656,-0.84371 3.5,-0.84375 z"
       id="path2821" />
  </g>
</svg>
